<svg id="Capa_1" enable-background="new 0 0 512 512" viewBox="0 0 512 512" xmlns="http://www.w3.org/2000/svg"><g><path d="m68.953 489.483c0 12.416 10.101 22.517 22.516 22.517h351.578v-45.033h-351.578c-12.415 0-22.516 10.1-22.516 22.516z"/><path d="m155.913 205.79c-7.851 0-14.238 6.388-14.238 14.238s6.387 14.238 14.238 14.238h6.334c-.306-3.067-.465-6.177-.465-9.324 0-6.563.685-12.969 1.981-19.152z"/><path d="m354.087 205.79h-7.755c1.296 6.184 1.981 12.589 1.981 19.152 0 3.147-.159 6.257-.465 9.324h6.239c7.851 0 14.238-6.388 14.238-14.238s-6.387-14.238-14.238-14.238z"/><path d="m91.469 0c-12.415 0-22.516 10.101-22.516 22.517v419.532c6.828-3.254 14.462-5.082 22.516-5.082h351.578v-436.967zm258.656 86.78h30.006v30h-30.006zm-30.003-30.009h30v30.007h-30zm16.186 330.198h-162.616v-30h162.615v30zm17.779-122.702h-14.483c-14.862 31.829-47.173 53.941-84.557 53.941s-69.695-22.112-84.557-53.941h-14.578c-24.393 0-44.238-19.845-44.238-44.238s19.845-44.238 44.238-44.238h19.908c16.476-26.461 45.826-44.113 79.227-44.113s62.751 17.652 79.227 44.113h19.813c24.393 0 44.238 19.845 44.238 44.238s-19.845 44.238-44.238 44.238z"/><path d="m255.047 161.677c-34.884 0-63.265 28.381-63.265 63.266 0 3.168.241 6.28.692 9.324h125.146c.452-3.044.692-6.156.692-9.324 0-34.885-28.38-63.266-63.265-63.266z"/><path d="m255.047 288.208c20.031 0 37.904-9.368 49.504-23.941h-99.009c11.601 14.573 29.475 23.941 49.505 23.941z"/></g><g/><g/><g/><g/><g/><g/><g/><g/><g/><g/><g/><g/><g/><g/><g/></svg>