<svg id="Capa_1" enable-background="new 0 0 512.133 512.133" height="512" viewBox="0 0 512.133 512.133" width="512" xmlns="http://www.w3.org/2000/svg"><g id="XMLID_1214_"><path id="XMLID_1215_" d="m.733 348.996h510.667v35.705h-510.667z"/><path id="XMLID_1241_" d="m152.237 205.407c0 11.729-2.643 22.848-7.347 32.811 8.181 7.731 15.134 16.684 20.689 26.505 5.356-9.867 12.079-18.798 20.004-26.435-4.724-9.981-7.378-21.125-7.378-32.88 0-34.831 23.214-64.329 54.979-73.871-4.131-10.273-10.103-19.524-17.603-27.259-13.693 12.407-31.846 19.976-51.735 19.976-19.682 0-37.657-7.421-51.299-19.599-6.965 7.489-12.511 16.499-16.343 26.582 32.303 9.201 56.033 38.957 56.033 74.17z"/><circle id="XMLID_1242_" cx="163.847" cy="47.127" r="47.127"/><path id="XMLID_1243_" d="m150.839 318.996c-1.084-21.582-9.731-41.714-23.992-56.44-13.693 12.408-31.847 19.978-51.737 19.978-19.849 0-37.967-7.541-51.65-19.903-13.467 14.38-21.614 34.46-22.621 56.365z"/><path id="XMLID_1244_" d="m.733 414.701h510.667v97.432h-510.667z"/><circle id="XMLID_1245_" cx="75.11" cy="205.407" r="47.127"/><path id="XMLID_1249_" d="m332.459 205.407c0 11.729-2.643 22.848-7.346 32.811 8.181 7.731 15.135 16.685 20.69 26.506 5.356-9.868 12.078-18.799 20.003-26.436-4.724-9.981-7.379-21.125-7.379-32.881 0-35.28 23.82-65.081 56.214-74.222-4.125-10.133-10.049-19.26-17.464-26.907-13.693 12.407-31.845 19.976-51.735 19.976-19.851 0-37.971-7.542-51.654-19.906-7.143 7.595-12.804 16.784-16.69 27.081 31.96 9.42 55.361 39.009 55.361 73.978z"/><circle id="XMLID_1258_" cx="345.443" cy="47.127" r="47.127"/><path id="XMLID_1259_" d="m331.062 318.996c-1.084-21.582-9.731-41.714-23.992-56.44-13.693 12.408-31.847 19.979-51.737 19.979-19.849 0-37.967-7.541-51.65-19.903-13.467 14.38-21.614 34.461-22.621 56.365h150z"/><circle id="XMLID_1260_" cx="255.332" cy="205.407" r="47.127"/><path id="XMLID_1261_" d="m511.284 318.996c-1.084-21.582-9.731-41.714-23.992-56.44-13.693 12.408-31.847 19.979-51.737 19.979-19.849 0-37.967-7.541-51.65-19.903-13.466 14.38-21.614 34.46-22.62 56.365h149.999z"/><circle id="XMLID_1262_" cx="435.554" cy="205.407" r="47.127"/></g></svg>