<svg id="Capa_1" enable-background="new 0 0 511.834 511.834" viewBox="0 0 511.834 511.834" xmlns="http://www.w3.org/2000/svg"><g><path d="m511.834 465.973v-252.212l-130.552 112.836z"/><path d="m432.956 242.283 78.878-68.174v-47.19h-78.877z"/><path d="m220.815 190.832h-24.174c-7.251 0-14.15-1.54-20.386-4.31v24.411c0 11.085 9.018 20.103 20.102 20.103h24.458c11.084 0 20.102-9.018 20.102-20.103 0-11.083-9.018-20.101-20.102-20.101z"/><path d="m78.878 126.919h-78.878v47.19l78.878 68.173z"/><path d="m158.68 340.461-137.178 146.439h468.83l-137.171-146.443z"/><path d="m157.762 310.461 196.316-.004 48.878-42.245v-243.278h-294.078v243.278zm19.095-234.189h158.119v30h-158.119zm-.601 64.173c0 11.241 9.145 20.387 20.386 20.387h24.174c13.657 0 26.055 5.493 35.102 14.386 9.047-8.892 21.444-14.386 35.102-14.386h24.174c11.241 0 20.386-9.146 20.386-20.387h30v70.488c0 27.627-22.476 50.103-50.102 50.103h-24.458c-13.657 0-26.055-5.493-35.102-14.386-9.047 8.893-21.444 14.386-35.102 14.386h-24.458c-27.626 0-50.102-22.476-50.102-50.103v-70.488z"/><path d="m0 213.761v252.211l130.557-139.372z"/><path d="m291.019 231.036h24.458c11.084 0 20.102-9.018 20.102-20.103v-24.411c-6.235 2.77-13.135 4.31-20.386 4.31h-24.174c-11.084 0-20.102 9.018-20.102 20.102 0 11.085 9.018 20.102 20.102 20.102z"/></g><g/><g/><g/><g/><g/><g/><g/><g/><g/><g/><g/><g/><g/><g/><g/></svg>